PathFileType  4	(X/Y/Z) C:\Users\antoi\Documents\MyRepositories\mobilecap\ResultsAnalysis
DataRate	CameraRate	NumFrames	NumMarkers	Units	OrigDataRate	OrigDataStartFrame	OrigNumFrames
100.0	100.0	4	55	mm	100.0	98	781
Frame#	Time	r_knee			r_shank_antsup			r_ankle			r_calc			r_5meta			r_toe			L_knee			L_shank_antsup			L_ankle			L_calc			L_5meta			L_toe			r_mknee			r_mankle			L_mknee			L_mankle			r_sh2			r_sh3			r_sh4			L_sh2			L_sh3			r_thigh1			r_thigh2			r_thigh3			r_thigh4			r_thigh5			L_thigh1			L_thigh2			L_thigh3			L_thigh4			r.ASIS			r.PSIS			L.ASIS			L.PSIS			C7			R_Shoulder			L_Shoulder			R_Sternum			L_Sternum			R_humerus			R_elbow_med			R_elbow_lat			R_forearm			R_wrist_radius			R_wrist_ulna			L_humerus			L_elbow_med			L_elbow_lat			L_forearm			L_wrist_radius			L_wrist_ulna			R_HJC			L_HJC			R_HJC_reg			L_HJC_reg			
		X1	Y1	Z1	X2	Y2	Z2	X3	Y3	Z3	X4	Y4	Z4	X5	Y5	Z5	X6	Y6	Z6	X7	Y7	Z7	X8	Y8	Z8	X9	Y9	Z9	X10	Y10	Z10	X11	Y11	Z11	X12	Y12	Z12	X13	Y13	Z13	X14	Y14	Z14	X15	Y15	Z15	X16	Y16	Z16	X17	Y17	Z17	X18	Y18	Z18	X19	Y19	Z19	X20	Y20	Z20	X21	Y21	Z21	X22	Y22	Z22	X23	Y23	Z23	X24	Y24	Z24	X25	Y25	Z25	X26	Y26	Z26	X27	Y27	Z27	X28	Y28	Z28	X29	Y29	Z29	X30	Y30	Z30	X31	Y31	Z31	X32	Y32	Z32	X33	Y33	Z33	X34	Y34	Z34	X35	Y35	Z35	X36	Y36	Z36	X37	Y37	Z37	X38	Y38	Z38	X39	Y39	Z39	X40	Y40	Z40	X41	Y41	Z41	X42	Y42	Z42	X43	Y43	Z43	X44	Y44	Z44	X45	Y45	Z45	X46	Y46	Z46	X47	Y47	Z47	X48	Y48	Z48	X49	Y49	Z49	X50	Y50	Z50	X51	Y51	Z51	X52	Y52	Z52	X53	Y53	Z53	X54	Y54	Z54	X55	Y55	Z55	

98	0.97000000	-205.97267	553.09865	-452.01425	-183.54326	429.20412	-457.91316	-293.84697	101.27494	-448.30626	-360.79059	67.02925	-490.82767	-159.54109	36.79558	-403.87490	-123.73289	58.63314	-478.31261	-245.11070	543.72360	-805.67916	-213.23178	440.48352	-792.89240	-300.41983	97.92933	-799.19494	-361.53755	66.82686	-751.45830	-156.19618	35.50393	-829.02578	-125.28849	58.39450	-757.79434	-212.89491	534.17495	-581.41066	-266.72385	111.67601	-543.01148	-233.69893	534.15430	-674.90997	-274.90745	113.56647	-705.90118	-191.86540	313.96589	-475.27331	-244.14207	425.01697	-409.24163	-243.32814	307.51566	-407.97767	-292.88654	443.63095	-834.37834	-275.20079	324.36864	-850.46548	-87.44149	781.19881	-476.64220	-100.89544	669.57791	-488.49838	-134.10837	645.89364	-433.34961	-171.38439	781.19891	-401.99697	-183.48870	663.99728	-421.58304	-130.54064	790.67435	-820.29515	-141.92028	654.96324	-809.18202	-239.32481	796.92144	-851.41066	-250.67986	658.38131	-832.43542	-105.00265	1055.36688	-485.86182	-310.72236	1088.98113	-574.69394	-103.76747	1045.63496	-754.37709	-312.29511	1086.35291	-673.52206	-299.68772	1575.17652	-637.98134	-218.37089	1517.19109	-444.40929	-204.71254	1533.51895	-811.58943	-152.08303	1522.73843	-609.24046	-151.25667	1517.26188	-653.03656	-190.90701	1347.21265	-375.00919	-254.98483	1122.84381	-409.62110	-229.68712	1146.83682	-335.43948	-115.95532	1014.19292	-327.81504	-69.35410	904.55648	-318.02615	-100.65218	883.86935	-299.81180	-181.54725	1356.76133	-890.99081	-262.74280	1146.72552	-859.38669	-220.22603	1160.60089	-925.26765	-115.88773	1032.16384	-894.61174	-74.51536	922.50411	-912.79853	-109.60832	907.42275	-938.59415	-188.89605	975.41095	-521.27634	-185.05710	957.33312	-733.86647	-178.21196	973.46337	-520.88068	-181.03265	968.74944	-698.13381	
99	0.98000000	-205.96828	553.11770	-452.03956	-183.52748	429.22347	-457.90503	-293.84791	101.25559	-448.30271	-360.66865	66.92297	-490.73588	-159.51412	36.78474	-403.87662	-123.70474	58.64045	-478.28932	-245.14336	543.74354	-805.67367	-213.27845	440.53165	-792.91596	-300.42353	97.91944	-799.12540	-361.56261	66.80303	-751.39926	-156.19411	35.53127	-829.01488	-125.28126	58.41975	-757.77522	-212.90189	534.17850	-581.41627	-266.72414	111.68956	-543.01307	-233.80781	534.05093	-674.94518	-274.91435	113.48236	-705.94851	-191.89116	313.98772	-475.27904	-244.25375	424.89462	-409.20933	-243.39699	307.40197	-407.99070	-292.91838	443.65091	-834.35750	-275.20443	324.39585	-850.44999	-87.49393	781.23197	-476.60154	-100.92147	669.59843	-488.47328	-134.09788	645.86892	-433.40154	-171.44065	781.19276	-402.02809	-183.44768	664.02161	-421.54412	-130.56914	790.68309	-820.29505	-141.94650	654.98271	-809.17171	-239.35364	796.97169	-851.41470	-250.71475	658.41737	-832.44832	-105.08770	1055.29904	-485.86972	-310.75832	1088.99964	-574.59609	-103.86329	1045.61829	-754.27036	-312.32870	1086.35851	-673.51641	-299.80210	1575.24045	-638.00617	-218.46611	1517.22352	-444.34243	-204.82432	1533.54029	-811.61558	-152.17460	1522.76381	-609.22766	-151.36127	1517.29438	-653.02105	-190.96615	1347.24920	-375.00617	-254.99346	1122.84900	-409.61952	-229.73269	1146.80649	-335.47775	-115.95377	1014.22536	-327.83928	-69.29354	904.62849	-317.99155	-100.62051	883.90453	-299.82322	-181.61612	1356.78874	-890.95149	-262.78186	1146.74208	-859.39323	-220.27036	1160.64901	-925.32695	-115.91792	1032.22999	-894.62370	-74.52934	922.55073	-912.80799	-109.59916	907.43016	-938.57742	-188.98663	975.37617	-521.23878	-185.15298	957.32674	-733.83140	-178.32759	973.49866	-520.86605	-181.14058	968.76840	-698.04186	
100	0.99000000	-205.95594	553.13200	-452.01814	-183.52626	429.25413	-457.92131	-293.83985	101.26666	-448.28701	-360.58248	66.87333	-490.68040	-159.51115	36.75178	-403.89980	-123.70342	58.65904	-478.29521	-245.17217	543.78055	-805.66442	-213.31165	440.58977	-792.92743	-300.42741	97.95501	-799.09957	-361.56957	66.84656	-751.37910	-156.18925	35.57594	-828.99831	-125.27498	58.42141	-757.74402	-212.90760	534.18462	-581.42308	-266.71506	111.75594	-542.98737	-233.81299	534.05877	-674.94082	-274.91079	113.42966	-705.98195	-191.92032	314.00704	-475.24835	-244.31650	424.80271	-408.97543	-243.65754	307.43754	-407.80528	-292.94917	443.72293	-834.37276	-275.21129	324.45128	-850.43338	-87.56961	781.29622	-476.57190	-100.94722	669.64100	-488.40906	-134.08179	645.83832	-433.44403	-171.46289	781.14981	-402.02237	-183.44798	664.01078	-421.50754	-130.59072	790.69797	-820.29469	-141.96646	655.00462	-809.14761	-239.38920	797.01223	-851.40436	-250.75297	658.45950	-832.44571	-105.18521	1055.23340	-485.88770	-310.89394	1089.06835	-574.46907	-103.94006	1045.62173	-754.16186	-312.36856	1086.36724	-673.51112	-299.90178	1575.29717	-637.99059	-218.57198	1517.24318	-444.31300	-204.92703	1533.58544	-811.61386	-152.27301	1522.80374	-609.21396	-151.47680	1517.34856	-653.00024	-191.03787	1347.32315	-374.97318	-255.00204	1122.85191	-409.61637	-229.74943	1146.82823	-335.46551	-115.91940	1014.25748	-327.82117	-69.22996	904.71748	-317.97422	-100.56642	883.96440	-299.81933	-181.68319	1356.85014	-890.93580	-262.82044	1146.76925	-859.39688	-220.31471	1160.70967	-925.37020	-115.95054	1032.30065	-894.62844	-74.66729	922.79468	-912.88469	-109.79497	907.68583	-938.63311	-189.10996	975.35692	-521.19773	-185.26901	957.34217	-733.79317	-178.56676	973.61612	-520.89382	-181.20380	968.78670	-697.98459	
101	1.00000000	-205.97032	553.14777	-451.98435	-183.55707	429.25280	-457.93792	-293.84185	101.29298	-448.28519	-360.67135	66.95315	-490.72207	-159.51818	36.73985	-403.90741	-123.71456	58.68535	-478.30664	-245.19828	543.82693	-805.65404	-213.31392	440.63363	-792.92414	-300.43418	98.01058	-799.08097	-361.58411	66.89321	-751.37660	-156.18234	35.62896	-828.97779	-125.28249	58.44144	-757.71628	-212.91207	534.18293	-581.42372	-266.69414	111.84354	-542.94999	-233.79881	534.08106	-674.92996	-274.91643	113.43313	-705.98057	-191.91799	314.03463	-475.18584	-244.24614	424.90262	-408.98063	-243.82215	307.52204	-407.60650	-292.98016	443.80629	-834.39378	-275.26115	324.52636	-850.43631	-87.61043	781.33119	-476.53211	-101.00121	669.70139	-488.33889	-134.09073	645.83744	-433.44780	-171.45434	781.16109	-401.99031	-183.50261	664.00210	-421.52291	-130.61609	790.71987	-820.28889	-141.99454	655.04300	-809.12393	-239.44903	797.03311	-851.37639	-250.81167	658.47383	-832.37336	-105.21871	1055.28059	-485.91263	-311.00485	1089.08330	-574.41210	-103.98635	1045.66416	-754.10567	-312.43286	1086.37940	-673.52876	-299.96828	1575.26782	-637.91884	-218.65392	1517.22773	-444.30668	-205.02854	1533.63414	-811.61234	-152.39677	1522.86001	-609.21983	-151.57826	1517.41358	-652.97293	-191.11980	1347.37435	-374.96754	-255.00903	1122.85504	-409.61274	-229.75116	1146.88479	-335.42858	-115.88791	1014.27531	-327.75844	-69.21169	904.78835	-317.94867	-100.50189	884.04477	-299.76935	-181.75118	1356.91836	-890.94535	-262.86024	1146.80546	-859.39528	-220.36067	1160.77418	-925.34746	-115.98046	1032.36779	-894.61000	-74.85895	923.13678	-912.99307	-110.07893	908.06763	-938.71391	-189.15545	975.39196	-521.17807	-185.31289	957.37302	-733.77313	-178.63877	973.66601	-520.94020	-181.18929	968.83641	-697.97893	
